<svg xmlns="http://www.w3.org/2000/svg" viewBox="0 0 70 70"><path fill="#F00" d="M0 0h70v70H0z"/><g fill="#FFF"><path d="M18.8 34.5H15c0 .9.3 1.6 1.3 1.6.7 0 1.4-.2 1.7-.4l.2 1.3c-.5.3-1.4.5-2.3.5-1.6 0-2.6-1-2.6-2.7 0-1 .3-2.2.9-3.1.6-1 1.6-1.6 2.8-1.6 1.4 0 2.2.9 2.2 2.5-.2.4-.3 1.3-.4 1.9m-2.2-3.2c-.5 0-1 .4-1.3 1.1-.1.3-.2.4-.2.8h2.3c.1-.2.1-.5.1-.8-.1-.7-.4-1.1-.9-1.1M6.8 39.4H5.1l-.8-9.1h1.9l.3 6.2 2.6-6.2H11zM22.9 31.6h-1l-.7 3.7c0 .1-.1.8.5.8.2 0 .4 0 .5-.1 0 0-.3 1.4-1.6 1.4-1 0-1.5-.8-1.2-2.1l1.2-6.2s.7-.8 2-.6c-.2 1.2-.3 1.7-.3 1.7h1l-.4 1.4zM35.4 31.6h-1l-.7 3.7c0 .1-.1.8.5.8.2 0 .4 0 .5-.1 0 0-.3 1.4-1.6 1.4-1 0-1.5-.8-1.2-2.1l1.2-6.2s.7-.8 2-.6c-.2 1.2-.3 1.7-.3 1.7h1l-.4 1.4zM31.3 34.5h-3.8c0 .9.3 1.6 1.3 1.6.7 0 1.4-.2 1.7-.4l.2 1.3c-.5.3-1.4.5-2.3.5-1.6 0-2.6-1-2.6-2.7 0-1 .3-2.2.9-3.1.6-1 1.6-1.6 2.8-1.6 1.4 0 2.2.9 2.2 2.5-.1.4-.2 1.3-.4 1.9m-2.2-3.2c-.5 0-1 .4-1.3 1.1-.1.3-.2.4-.2.8h2.3c.1-.2.1-.5.1-.8-.1-.7-.4-1.1-.9-1.1M48.9 31.6c-.4-.2-.9-.2-1.2-.1l-1.1 5.8h-1.8l1.3-6.7c.8-.5 2.2-.7 3.4-.5l-.6 1.5zM39.9 39.4v-2h-2.6l-1 2h-1.8l5-9.1h1.9l.3 9.1h-1.8zm0-7.1L38 36.1h1.9v-3.8z"/><path d="M21.1 40.4c-1.7 0-2.6-1.2-2.4-2.4.8 1 2.4 1 3.3.2.3-.3.6-.8.8-2.1.4-2.1 1.1-5.8 1.1-5.8h1.9L24.5 37c-.4 2.1-1.7 3.4-3.4 3.4M11.9 37.4H10l1.4-7.1h1.8zM43.8 37.4H42l1.4-7.1h1.8zM48.1 37.5c-.3 0-.5-.2-.5-.5 0-.4.4-.8.8-.8.3 0 .5.2.5.6 0 .3-.4.7-.8.7M52.8 33.2c-.1-.1-.3-.2-.5-.2-.4 0-.7.2-1 .7-.2.4-.4 1.1-.4 1.6 0 .6.2 1 .6 1 .3 0 .5-.1.7-.2l.1.9c-.2.2-.6.4-1.2.4-.9 0-1.6-.8-1.6-2 0-.8.3-1.7.7-2.3.5-.7 1.2-1.1 1.9-1.1.5 0 1 .2 1.2.4l-.5.8z"/><path d="M56.4 36.3c-.4.7-1.1 1.2-2.1 1.2-1.2 0-1.7-.8-1.7-2 0-.8.3-1.7.7-2.4.5-.7 1.2-1.2 2-1.2 1.2 0 1.8.8 1.8 1.9 0 .9-.3 1.9-.7 2.5m-1.2-3.4c-.4 0-.6.3-.8.8-.2.5-.4 1.4-.4 1.9s.1.8.5.8.6-.3.8-.8c.2-.5.4-1.4.4-2 0-.4-.1-.7-.5-.7M64.5 33.7l-.7 3.7h-1.4l.7-3.8v-.2c0-.3-.2-.5-.6-.5-.2 0-.5.1-.7.3l-.8 4.2h-1.4l.7-3.8v-.2c0-.3-.2-.5-.6-.5-.2 0-.4 0-.6.1l-.8 4.4h-1.4l1-5c.6-.3 1.2-.4 2.1-.4.6 0 1.2.2 1.4.5.3-.3.9-.5 1.7-.5 1 0 1.5.6 1.5 1.3-.1.1-.1.3-.1.4"/></g></svg>