<svg xmlns="http://www.w3.org/2000/svg" width="70" height="70" viewBox="0 0 70 70"><switch><g><path fill="none" d="M0 0h70v70H0z"/><path fill="#D09933" d="M35 50.3c-.6.3-4.8 3.9-13.2 3.9-7.1 0-14.7-3.601-17-3.5-.8 0-1.5.1-2 .399-1 .4-1.6-.199-1.5-.8.1-.6.9-1.6 1.5-2.399.7-.9 1.8-2 3-2.801 3.4-2.3 6.5-2.3 7.9-2.1.2 0 .8.1 1.8 1 2.3 2.2 6.4 5 9.6 5.5.3 0 1.8.2 1.8-.2 0-.2-.4-.3-.5-.399-5.1-1.2-8-3.601-10.9-6.2-2.3-2.101-4-4.7-5.3-7.2-1-2-2.5-6-5.1-7.3-.6-.3-.6-1.4.6-1.6.9-.2 6.1-.7 12.3 2.7 2.4 1.3 3.2 2.8 3.3 3.2 0 0 .1.1.2.7.3 8.899 4.3 11.899 6.2 13.3.8.6 1.7.9 2 .6.1-.1-.2-.399-.4-.5-5.5-3.6-6.5-8.3-6.8-13.399-.3-5 1.8-9.4 3.2-13 .2-.5 1-2.8.4-4.8-.4-1.3 0-1.6.7-1.7.7-.1 1.9 1.4 2.2 1.9 0 .3 1 1.4 2.5 4.4 2.9 5.8 3 12.2 3 13-.1 4.2-.8 4.4-2.8 5.4C30 39 29 40.4 29 41.7s1 2.3 2.8 3.1c.1 0 .3.101.4.101.8.199 1.5 0 1.5-.301 0-.3-.8-.399-.8-.399-1.8-.4-3-1.4-3-2.5 0-1.5 2.2-3.101 4.9-3.101h.4c2.7 0 4.899 1.601 4.899 3.101 0 1.1-1.199 2.1-3 2.5 0 0-.8.1-.8.399 0 .301.7.5 1.4.301.1 0 .3-.101.399-.101C39.9 44 40.9 43 40.9 41.7s-.9-2.6-2.6-3.3c-2-1-2.8-1.2-2.8-5.4 0-.7 0-7.2 2.9-13 1.5-2.9 2.5-4.1 2.8-4.5.399-.5 1.5-2 2.3-1.9.7.1 1.1.4.7 1.7-.601 2 .2 4.2.399 4.8 1.301 3.6 3.5 7.9 3.2 13s-1.3 9.8-6.8 13.4c-.2.1-.5.4-.4.6.301.301 1.2 0 2-.6 1.9-1.4 5.801-4.4 6.2-13.3 0-.6.2-.7.2-.7.1-.4.9-1.8 3.3-3.2 6.2-3.4 11.4-2.9 12.3-2.7 1.2.3 1.2 1.4.601 1.6-2.6 1.3-4.1 5.3-5.1 7.3-1.3 2.5-3.1 5.1-5.3 7.2-2.8 2.6-5.8 5.1-10.9 6.2-.101 0-.5.1-.5.399 0 .4 1.5.3 1.8.2 3.2-.6 7.3-3.3 9.6-5.5 1-.9 1.5-1 1.8-1 1.4-.2 4.5-.2 7.801 2.1 1.199.801 2.3 1.801 3 2.801.6.8 1.399 1.8 1.5 2.399C69 50.9 68.3 51.5 67.3 51.1c-.5-.199-1.2-.399-2-.399-2.399-.101-9.899 3.5-17 3.5C39.8 54.2 35.6 50.6 35 50.3z"/></g></switch></svg>